<svg xmlns="http://www.w3.org/2000/svg" width="711.55328" height="632.0752" viewBox="0 0 711.55328 632.0752" xmlns:xlink="http://www.w3.org/1999/xlink" role="img" artist="Katerina Limpitsouni" source="https://undraw.co/"><path d="M363.08505,632.06064h-196.59297c-25.61594,0-46.45627-20.84005-46.45627-46.45626V78.41982c0-25.61624,20.84033-46.45628,46.45627-46.45628h196.59297c25.61624,0,46.45626,20.84004,46.45626,46.45628v507.18456c0,25.61628-20.84005,46.45626-46.45626,46.45626Z" fill="#2f2e41"/><path d="M363.28536,619.523h-196.99369c-19.22081,0-34.85807-15.63757-34.85807-34.85809V76.50978c0-19.22053,15.63726-34.85807,34.85807-34.85807h196.99369c19.22052,0,34.85805,15.63754,34.85805,34.85807v508.15513c0,19.22052-15.63757,34.85809-34.85809,34.85809h.00004Z" fill="#fff"/><path d="M295.56276,74.70549h-62.68822c-7.22745,0-13.10753-5.8798-13.10753-13.10753s5.88009-13.10753,13.10753-13.10753h62.68822c7.22774,0,13.10753,5.8798,13.10753,13.10753s-5.87979,13.10753-13.10753,13.10753Z" fill="#2f2e41"/><rect x="350.41286" y="257.2895" width="10.73283" height="107.3282" fill="#6c63ff"/><rect x="332.43542" y="345.83526" width="10.73283" height="18.78244" fill="#6c63ff"/><rect x="314.45793" y="340.46882" width="10.73281" height="24.14883" fill="#6c63ff"/><rect x="296.48047" y="337.78561" width="10.73281" height="26.83201" fill="#6c63ff"/><rect x="278.50303" y="337.78561" width="10.73281" height="26.83201" fill="#6c63ff"/><rect x="260.52557" y="251.9231" width="10.73281" height="112.6946" fill="#6c63ff"/><rect x="244.42629" y="341.81045" width="10.73281" height="24.14883" fill="#6c63ff"/><rect x="225.64387" y="341.81045" width="10.73281" height="24.14883" fill="#6c63ff"/><rect x="190.76221" y="341.81045" width="10.73281" height="24.14883" fill="#6c63ff"/><rect x="206.86145" y="349.86006" width="10.73281" height="16.09922" fill="#6c63ff"/><path d="M0,629.84768c0,1.23898,1.41032,2.22752,3.17652,2.22752h705.20028c1.75304,0,3.17648-.98854,3.17648-2.22752s-1.41033-2.22752-3.17648-2.22752H3.17652c-1.75302,0-3.17652.98854-3.17652,2.22752Z" fill="#2f2e43"/><path d="M413.46064,316.0348l12.08359-33.56183-19.59565-7.0552-12.08359,33.56183c-4.83065,2.18245-9.04527,6.6785-11.19794,12.6575-3.76661,10.46168.19855,21.4694,8.85646,24.58659,8.65792,3.11719,18.72991-2.83659,22.49656-13.29829,2.15266-5.979,1.77118-12.12983-.55943-16.89063v.00002Z" fill="#e29295"/><polyline points="443.01714 137.675 388.002 301.54574 422.28336 313.05475 486.96563 153.96872" fill="#2f2e41"/><path d="M440.15476,337.10331c-.58353-.24961-1.15821-.51991-1.72472-.8149-6.76168-3.51312-11.17071-9.83026-13.1064-18.77484-7.2819-33.66732-12.84257-133.13046-2.44646-157.43546,9.93479-23.22646,60.57445-74.82745,61.09064-75.55029l.33181-.46523,22.43099,16.51987c16.11012,11.86436,21.56087,33.5961,12.96216,51.67399-21.00883,44.16866-54.46303,126.52903-42.47912,181.86892l.09899.45658-.42959.18203c-.89896.37875-21.42503,8.88506-36.7283,2.3393v.00002Z" fill="#2f2e41"/><polygon points="518.98038 205.07702 533.2665 256.74677 438.65324 255.62044 451.39952 208.45607 518.98038 205.07702" fill="#e29295"/><rect x="409.27365" y="578.88224" width="22.63565" height="29.83424" fill="#e29295"/><path d="M428.04579,629.30671h-48.11553c-4.11249,0-8.2453-.94172-11.95173-2.7234l-8.8703-4.2639c-1.83405-.88159-3.01913-2.76616-3.01913-4.80105,0-2.38645,1.60634-4.49768,3.90635-5.13414l18.29987-5.06371,31.30656-16.45553.02341.11854c.5855,2.96519,1.49263,7.4448,1.60803,7.71652,3.21047,3.67787,6.50855,5.37267,9.80265,5.03869,5.74567-.58248,9.56533-7.21726,9.60326-7.28423l.02904-.05125.05861.00599c1.34545.13926,2.34067.68188,2.95815,1.61286,1.3107,1.97636.51113,5.02007.37955,5.47914,1.56974,1.53583,2.27414,10.11266,2.32864,10.80491,2.26963,2.40571,3.34824,4.71851,3.20528,6.87407-.1249,1.88457-1.17003,3.63471-3.10617,5.20208-2.32941,1.88578-5.32911,2.92432-8.44646,2.92432l-.00008.00008Z" fill="#2f2e41"/><rect x="563.18137" y="567.84325" width="22.63565" height="29.83424" transform="translate(-139.91439 183.67116) rotate(-16.22019)" fill="#e29295"/><path d="M591.57506,614.77215l-46.20031,13.4401c-3.94878,1.14875-8.18018,1.39895-12.23672.72351l-9.70824-1.61644c-2.00729-.33422-3.67164-1.81273-4.24004-3.76661-.66659-2.29144.28607-4.76734,2.31674-6.02092l16.15698-9.97384,25.46387-24.54536.05559.10732c1.39046,2.68358,3.51276,6.73151,3.69947,6.96019,4.11,2.63467,7.75018,3.34076,10.81991,2.09997,5.35425-2.16425,7.16859-9.60185,7.18633-9.67679l.0136-.05728.05796-.01062c1.33081-.24211,2.43797.00093,3.29088.72238,1.81056,1.53157,1.89302,4.67744,1.89491,5.15506,1.93626,1.03625,5.00836,9.07488,5.25405,9.72437,2.85131,1.67597,4.53295,3.59542,4.99782,5.70512.4065,1.84443-.10816,3.81689-1.52943,5.86264-1.70992,2.46142-4.3001,4.29652-7.29336,5.16729v-.00008Z" fill="#2f2e41"/><path d="M535.51916,248.86234l-96.86588,2.2527s-58.86244,169.67431-56.60974,330.742h80.80503l4.79739-186.97374,14.03598,194.23126,106.48322-6.13121-52.64599-334.12105v.00004Z" fill="#2f2e41"/><path d="M516.74115,42.72091c0-20.32361-16.4756-36.7992-36.79922-36.7992s-36.79934,16.47559-36.79934,36.7992c0,16.4826,10.83725,30.43229,25.77428,35.11711l7.11392,47.01456,36.26585-30.22152s-7.83453-9.97929-12.03604-21.23149c9.93032-6.59006,16.48055-17.86729,16.48055-30.67868v.00003Z" fill="#e29295"/><path d="M518.43293,83.69361l-46.36877,14.89368-19.56479,44.76049-10.6558,19.53561c-4.85109,8.89365-3.26317,19.92021,3.90027,27.08369l6.75549,6.75549-9.41907,34.53662,87.91139-3.1397,5.58159-78.14241c.46068-6.44937-.35465-12.92628-2.39932-19.06029l-15.74107-47.22318h.00008Z" fill="#6c63ff"/><path d="M528.55652,91.07114s-1.71841,13.03749-17.63932,13.46325c-21.53046.57578-32.29567.86366-32.29567.86366,0,0,27.30094-66.4403,16.07517-58.95533-11.22577,7.48498-41.16114-23.89436-41.16114-23.89436l-8.83289,16.56603s-21.10247-7.64163,2.28456-26.35408c0,0,27.90406-21.57324,57.52761-8.61846,29.62355,12.95478,24.04164,86.9293,24.04164,86.9293h.00004Z" fill="#2f2e41"/><path d="M546.6842,331.6161c-.63465,0-1.26935-.02255-1.90621-.07095-7.59846-.57088-14.13654-4.64508-19.43391-12.10768-19.93546-28.09078-64.16387-117.35265-64.16387-143.78773,0-25.26198,26.26622-92.62018,26.45652-93.48777l.12208-.55822,27.12034,6.36732c19.47791,4.57277,33.03587,22.40981,32.23951,42.41267-1.94579,48.87182-.31459,137.75239,32.46718,183.92028l.27059.38086-.3234.33631c-.67757.70177-16.20445,16.59494-32.84887,16.59494l.00004-.00002Z" fill="#2f2e41"/><path d="M550.82742,311.5295l-6.25225-35.11864-20.50459,3.65048,6.25225,35.11864c-3.1001,4.29974-4.51296,10.29819-3.39912,16.55452,1.94889,10.94696,10.87293,18.5136,19.93248,16.90074,9.05955-1.6129,14.8238-11.79454,12.87487-22.7415-1.11384-6.25635-4.51023-11.39857-8.90365-14.36424Z" fill="#e29295"/><polyline points="487.5527 142.17153 521.5348 311.65749 556.99081 304.54854 533.77437 134.39226" fill="#2f2e41"/></svg>